<svg id="SvgjsSvg1001" width="288" height="288"
  xmlns="http://www.w3.org/2000/svg" version="1.1"
  xmlns:xlink="http://www.w3.org/1999/xlink"
  xmlns:svgjs="http://svgjs.com/svgjs">
  <defs id="SvgjsDefs1002"></defs>
  <g id="SvgjsG1008" transform="matrix(1,0,0,1,0,0)">
    <svg xmlns="http://www.w3.org/2000/svg" fill="none" viewBox="0 0 30 30" width="288" height="288">
      <path fill="#0fba34" d="M12 12.9921C12 11.3385 13.3437 9.99475 15 9.99475C16.6563 9.99475 18 11.3385 18 12.9921C18 14.6458 16.6563 15.9896 15 15.9896C13.3437 15.9896 12 14.6458 12 12.9921Z" class="color0A0A0A svgShape"></path>
      <path fill="#0fba34" fill-rule="evenodd" d="M2 12.9921C2 5.81754 7.82234 0 15 0C22.1777 0 28 5.81754 28 12.9921C28 18.3402 25.3234 22.5771 22.4569 25.4418C21.0203 26.8775 19.5155 27.9905 18.2265 28.7502C17.5823 29.1299 16.9803 29.4282 16.457 29.6348C15.9629 29.8298 15.4442 29.9818 15 29.9818C14.5558 29.9818 14.0371 29.8298 13.543 29.6348C13.0197 29.4282 12.4177 29.1299 11.7735 28.7502C10.4845 27.9905 8.97968 26.8775 7.54312 25.4418C4.67658 22.5771 2 18.3402 2 12.9921ZM15 7.99475C12.2403 7.99475 10 10.2327 10 12.9921C10 15.7516 12.2403 17.9896 15 17.9896C17.7597 17.9896 20 15.7516 20 12.9921C20 10.2327 17.7597 7.99475 15 7.99475Z" clip-rule="evenodd" class="color0A0A0A svgShape"></path>
    </svg>
  </g>
</svg>